<mxfile host="app.diagrams.net" modified="2023-12-13T00:24:09.623Z" agent="Mozilla/5.0 (Windows NT 10.0; Win64; x64; rv:120.0) Gecko/20100101 Firefox/120.0" etag="q7dvPmKV7tE9-vv776gj" version="22.1.8" type="device">
  <diagram name="Page-1" id="dJRBl1X2EbLSwyJ1ape2">
    <mxGraphModel dx="1235" dy="656" grid="1" gridSize="10" guides="1" tooltips="1" connect="1" arrows="1" fold="1" page="1" pageScale="1" pageWidth="850" pageHeight="1100" math="0" shadow="0">
      <root>
        <mxCell id="0" />
        <mxCell id="1" parent="0" />
        <mxCell id="x6oTIty5pOw8cirvQ3Ol-9" value="" style="ellipse;html=1;shape=startState;fillColor=#000000;strokeColor=#000000;" vertex="1" parent="1">
          <mxGeometry x="170" y="145" width="30" height="30" as="geometry" />
        </mxCell>
        <mxCell id="x6oTIty5pOw8cirvQ3Ol-10" value="" style="edgeStyle=orthogonalEdgeStyle;html=1;verticalAlign=bottom;endArrow=open;endSize=8;strokeColor=#000000;rounded=0;entryX=0;entryY=0.5;entryDx=0;entryDy=0;" edge="1" source="x6oTIty5pOw8cirvQ3Ol-9" parent="1" target="x6oTIty5pOw8cirvQ3Ol-11">
          <mxGeometry relative="1" as="geometry">
            <mxPoint x="375" y="170" as="targetPoint" />
            <Array as="points">
              <mxPoint x="200" y="155" />
              <mxPoint x="200" y="160" />
            </Array>
          </mxGeometry>
        </mxCell>
        <mxCell id="x6oTIty5pOw8cirvQ3Ol-13" value="" style="edgeStyle=orthogonalEdgeStyle;rounded=0;orthogonalLoop=1;jettySize=auto;html=1;" edge="1" parent="1" source="x6oTIty5pOw8cirvQ3Ol-11" target="x6oTIty5pOw8cirvQ3Ol-12">
          <mxGeometry relative="1" as="geometry">
            <Array as="points">
              <mxPoint x="380" y="110" />
              <mxPoint x="380" y="110" />
            </Array>
          </mxGeometry>
        </mxCell>
        <mxCell id="x6oTIty5pOw8cirvQ3Ol-11" value="&lt;div&gt;Ler carga atual de cada técnico disponível&lt;/div&gt;" style="rounded=1;whiteSpace=wrap;html=1;" vertex="1" parent="1">
          <mxGeometry x="270" y="130" width="210" height="60" as="geometry" />
        </mxCell>
        <mxCell id="x6oTIty5pOw8cirvQ3Ol-15" value="" style="edgeStyle=orthogonalEdgeStyle;rounded=0;orthogonalLoop=1;jettySize=auto;html=1;entryX=0;entryY=0.5;entryDx=0;entryDy=0;" edge="1" parent="1" source="x6oTIty5pOw8cirvQ3Ol-12" target="x6oTIty5pOw8cirvQ3Ol-14">
          <mxGeometry relative="1" as="geometry">
            <Array as="points">
              <mxPoint x="510" y="70" />
              <mxPoint x="510" y="70" />
            </Array>
          </mxGeometry>
        </mxCell>
        <mxCell id="x6oTIty5pOw8cirvQ3Ol-12" value="Ler projetos que precisam de ser alocados" style="rounded=1;whiteSpace=wrap;html=1;" vertex="1" parent="1">
          <mxGeometry x="269.38" y="40" width="213.75" height="60" as="geometry" />
        </mxCell>
        <mxCell id="x6oTIty5pOw8cirvQ3Ol-17" value="" style="edgeStyle=orthogonalEdgeStyle;rounded=0;orthogonalLoop=1;jettySize=auto;html=1;entryX=0.5;entryY=0;entryDx=0;entryDy=0;" edge="1" parent="1" source="x6oTIty5pOw8cirvQ3Ol-14" target="x6oTIty5pOw8cirvQ3Ol-16">
          <mxGeometry relative="1" as="geometry">
            <mxPoint x="647" y="128" as="targetPoint" />
            <Array as="points" />
          </mxGeometry>
        </mxCell>
        <mxCell id="x6oTIty5pOw8cirvQ3Ol-14" value="Ler matriz de aptidão entre técnicos disponíveis e projetos por alocar" style="rounded=1;whiteSpace=wrap;html=1;" vertex="1" parent="1">
          <mxGeometry x="540" y="40" width="213.75" height="60" as="geometry" />
        </mxCell>
        <mxCell id="x6oTIty5pOw8cirvQ3Ol-19" value="" style="edgeStyle=orthogonalEdgeStyle;rounded=0;orthogonalLoop=1;jettySize=auto;html=1;entryX=0.5;entryY=0;entryDx=0;entryDy=0;" edge="1" parent="1" source="x6oTIty5pOw8cirvQ3Ol-16" target="x6oTIty5pOw8cirvQ3Ol-18">
          <mxGeometry relative="1" as="geometry">
            <Array as="points">
              <mxPoint x="640" y="210" />
              <mxPoint x="641" y="210" />
            </Array>
          </mxGeometry>
        </mxCell>
        <mxCell id="x6oTIty5pOw8cirvQ3Ol-16" value="&lt;div&gt;Calcular alocação de técnicos a projetos&lt;/div&gt;" style="rounded=1;whiteSpace=wrap;html=1;" vertex="1" parent="1">
          <mxGeometry x="563.74" y="130" width="167.5" height="60" as="geometry" />
        </mxCell>
        <mxCell id="x6oTIty5pOw8cirvQ3Ol-21" value="" style="edgeStyle=orthogonalEdgeStyle;rounded=0;orthogonalLoop=1;jettySize=auto;html=1;" edge="1" parent="1" source="x6oTIty5pOw8cirvQ3Ol-18" target="x6oTIty5pOw8cirvQ3Ol-20">
          <mxGeometry relative="1" as="geometry" />
        </mxCell>
        <mxCell id="x6oTIty5pOw8cirvQ3Ol-18" value="Guardar resultado da alocação no Excel" style="rounded=1;whiteSpace=wrap;html=1;" vertex="1" parent="1">
          <mxGeometry x="556.88" y="220" width="167.5" height="60" as="geometry" />
        </mxCell>
        <mxCell id="x6oTIty5pOw8cirvQ3Ol-23" value="" style="edgeStyle=orthogonalEdgeStyle;rounded=0;orthogonalLoop=1;jettySize=auto;html=1;" edge="1" parent="1" source="x6oTIty5pOw8cirvQ3Ol-20" target="x6oTIty5pOw8cirvQ3Ol-22">
          <mxGeometry relative="1" as="geometry">
            <Array as="points">
              <mxPoint x="374" y="300" />
              <mxPoint x="374" y="300" />
            </Array>
          </mxGeometry>
        </mxCell>
        <mxCell id="x6oTIty5pOw8cirvQ3Ol-20" value="Executar servidor para receber pedidos" style="rounded=1;whiteSpace=wrap;html=1;" vertex="1" parent="1">
          <mxGeometry x="290" y="220" width="167.5" height="60" as="geometry" />
        </mxCell>
        <mxCell id="x6oTIty5pOw8cirvQ3Ol-25" value="Sim" style="edgeStyle=orthogonalEdgeStyle;rounded=0;orthogonalLoop=1;jettySize=auto;html=1;" edge="1" parent="1" source="x6oTIty5pOw8cirvQ3Ol-22" target="x6oTIty5pOw8cirvQ3Ol-24">
          <mxGeometry relative="1" as="geometry" />
        </mxCell>
        <mxCell id="x6oTIty5pOw8cirvQ3Ol-31" value="Não" style="edgeStyle=orthogonalEdgeStyle;rounded=0;orthogonalLoop=1;jettySize=auto;html=1;" edge="1" parent="1" source="x6oTIty5pOw8cirvQ3Ol-22" target="x6oTIty5pOw8cirvQ3Ol-30">
          <mxGeometry relative="1" as="geometry" />
        </mxCell>
        <mxCell id="x6oTIty5pOw8cirvQ3Ol-22" value="Utilizador fecha programa?" style="rhombus;whiteSpace=wrap;html=1;rounded=1;" vertex="1" parent="1">
          <mxGeometry x="308.13" y="330" width="133.75" height="80" as="geometry" />
        </mxCell>
        <mxCell id="x6oTIty5pOw8cirvQ3Ol-39" style="edgeStyle=orthogonalEdgeStyle;rounded=0;orthogonalLoop=1;jettySize=auto;html=1;entryX=0.5;entryY=1;entryDx=0;entryDy=0;" edge="1" parent="1" source="x6oTIty5pOw8cirvQ3Ol-24" target="x6oTIty5pOw8cirvQ3Ol-38">
          <mxGeometry relative="1" as="geometry" />
        </mxCell>
        <mxCell id="x6oTIty5pOw8cirvQ3Ol-24" value="Finaliza execução" style="whiteSpace=wrap;html=1;rounded=1;" vertex="1" parent="1">
          <mxGeometry x="106.25" y="340" width="157.5" height="60" as="geometry" />
        </mxCell>
        <mxCell id="x6oTIty5pOw8cirvQ3Ol-35" value="Sim" style="edgeStyle=orthogonalEdgeStyle;rounded=0;orthogonalLoop=1;jettySize=auto;html=1;" edge="1" parent="1" source="x6oTIty5pOw8cirvQ3Ol-30" target="x6oTIty5pOw8cirvQ3Ol-34">
          <mxGeometry relative="1" as="geometry" />
        </mxCell>
        <mxCell id="x6oTIty5pOw8cirvQ3Ol-36" value="Não" style="edgeStyle=orthogonalEdgeStyle;rounded=0;orthogonalLoop=1;jettySize=auto;html=1;entryX=1;entryY=0.5;entryDx=0;entryDy=0;" edge="1" parent="1" source="x6oTIty5pOw8cirvQ3Ol-30" target="x6oTIty5pOw8cirvQ3Ol-22">
          <mxGeometry x="-0.9597" y="-4" relative="1" as="geometry">
            <Array as="points">
              <mxPoint x="374" y="610" />
              <mxPoint x="720" y="610" />
              <mxPoint x="720" y="370" />
            </Array>
            <mxPoint as="offset" />
          </mxGeometry>
        </mxCell>
        <mxCell id="x6oTIty5pOw8cirvQ3Ol-30" value="Programa recebe pedido da interface web?" style="rhombus;whiteSpace=wrap;html=1;rounded=1;" vertex="1" parent="1">
          <mxGeometry x="253.43" y="460" width="240.63" height="100" as="geometry" />
        </mxCell>
        <mxCell id="x6oTIty5pOw8cirvQ3Ol-37" style="edgeStyle=orthogonalEdgeStyle;rounded=0;orthogonalLoop=1;jettySize=auto;html=1;entryX=1;entryY=0.5;entryDx=0;entryDy=0;" edge="1" parent="1" source="x6oTIty5pOw8cirvQ3Ol-34" target="x6oTIty5pOw8cirvQ3Ol-22">
          <mxGeometry relative="1" as="geometry">
            <Array as="points">
              <mxPoint x="720" y="510" />
              <mxPoint x="720" y="370" />
            </Array>
          </mxGeometry>
        </mxCell>
        <mxCell id="x6oTIty5pOw8cirvQ3Ol-34" value="&lt;div&gt;Envia informação pedida&lt;/div&gt;" style="whiteSpace=wrap;html=1;rounded=1;" vertex="1" parent="1">
          <mxGeometry x="563.745" y="480" width="120" height="60" as="geometry" />
        </mxCell>
        <mxCell id="x6oTIty5pOw8cirvQ3Ol-38" value="" style="ellipse;html=1;shape=endState;fillColor=#000000;strokeColor=#050000;" vertex="1" parent="1">
          <mxGeometry x="170" y="250" width="30" height="30" as="geometry" />
        </mxCell>
      </root>
    </mxGraphModel>
  </diagram>
</mxfile>
